<?xml version="1.0" encoding="UTF-8"?><svg id="uuid-bf934182-3131-4636-a1c7-12d95e3fe561" xmlns="http://www.w3.org/2000/svg" viewBox="0 0 400 400"><defs><style>.uuid-57d25f76-a6ed-4332-b75b-4b3e1b90a801{fill:#2b579a;stroke-width:0px;}</style></defs><path id="uuid-181d143b-7352-46ff-83b2-afe662744829" class="uuid-57d25f76-a6ed-4332-b75b-4b3e1b90a801" d="M184.20846,10.01756c2.38164.2285,4.7633.43063,7.14494.69428,13.39346,1.45887,25.70596,5.62455,35.99713,14.65899,9.61447,8.45441,15.31814,19.22894,18.4292,31.4975,1.35092,5.40289,2.02399,10.95293,2.00377,16.52212-.02639,76.10721-.0088,152.21444-.03513,228.32164.01802,9.24731-2.44319,18.33039-7.12735,26.30356-6.45945,11.14364-16.29363,17.55036-28.85221,19.73866-10.78331,1.88072-21.50512,1.37098-31.91934-2.15316-15.06327-5.10604-23.73738-15.90694-26.78694-31.29537-.76458-3.86687-.9052-7.90073-.96673-11.87309-.14062-8.78836-.04393-17.58552-.04393-26.37388V84.23529c0-6.187,3.68233-9.57931,9.92207-9.00807,1.65222.1494,3.34836.51851,4.87753,1.15127,2.74196,1.13369,4.12174,3.24291,4.12174,6.3452-.02636,72.8819-.02636,145.77255-.01757,218.65447,0,13.19134,9.18385,24.88865,21.90061,27.77123,5.84876,1.39163,11.9617,1.20969,17.71734-.52731,9.43869-2.87378,14.7908-9.62327,17.19004-18.89498.65805-2.51652.99467-5.10625,1.00189-7.70738.05273-76.92454.16698-153.84907-.06152-230.77361-.04393-15.17751-6.23974-27.85911-19.15862-36.61232-5.67727-3.8493-12.11036-5.84426-18.85982-6.80219-9.46506-1.33583-18.88618-1.04582-28.05247,1.83676-15.76632,4.94785-24.96774,16.02119-28.71157,31.80508-.85832,3.72653-1.28591,7.53928-1.27432,11.36336-.0703,76.10723-.11425,152.21443,0,228.32165.02636,16.49575,4.36782,31.91934,13.64833,45.69949,9.44749,14.02622,22.84974,22.0412,39.41581,24.81833,13.44618,2.24982,26.8133,1.63462,39.8728-2.28498,21.1448-6.3452,33.8176-20.82843,39.34552-41.9117,2.06787-8.07989,2.88009-16.42988,2.408-24.75683-.04393-.76458-.03513-1.52917-.03513-2.30255V73.02133c0-6.54733,4.02509-10.02753,10.64269-9.17505.71186.08789,1.41491.20213,2.10923.36911,3.10232.72944,5.31695,2.47832,6.30124,5.59818v234.92172c-.11425.49215-.29003.9755-.32517,1.47644-.70515,11.02179-3.11852,21.86709-7.15374,32.14785-12.23339,30.99655-35.08313,47.87021-68.1889,50.9901l-6.83735.65033h-7.66345l-2.25862-.32517c-5.75637-.73825-11.60942-1.07215-17.26913-2.29375-21.0745-4.56996-37.47359-15.98603-48.59963-34.56465-9.45731-15.71405-14.42133-33.72194-14.35138-52.06225-.11425-75.72931-.03516-151.45864-.06152-227.19674,0-5.60698.6064-11.09971,1.95981-16.52212,3.10229-12.3828,8.84109-23.25401,18.56102-31.75236,10.30876-9.01686,22.62124-13.16496,36.01472-14.59747,2.32891-.24607,4.65782-.45699,6.98676-.68549,2.33771.01757,4.68419.01757,7.03949.01757h-.00013Z"/></svg>