<?xml version="1.0" encoding="UTF-8"?>
<svg xmlns="http://www.w3.org/2000/svg" xmlns:xlink="http://www.w3.org/1999/xlink" viewBox="0 0 200 200" version="1.1">
    <path fill="#2b579a"
          d="M 92.105469 5.007812 C 93.296875 5.121094 94.484375 5.222656 95.675781 5.355469 C 102.375 6.085938 108.53125 8.167969 113.675781 12.683594 C 118.484375 16.914062 121.335938 22.300781 122.890625 28.433594 C 123.566406 31.136719 123.902344 33.910156 123.890625 36.695312 C 123.878906 74.75 123.886719 112.800781 123.875 150.855469 C 123.882812 155.480469 122.652344 160.019531 120.308594 164.007812 C 117.082031 169.578125 112.164062 172.78125 105.882812 173.878906 C 100.492188 174.816406 95.132812 174.5625 89.925781 172.800781 C 82.394531 170.246094 78.054688 164.847656 76.53125 157.152344 C 76.148438 155.21875 76.078125 153.203125 76.046875 151.214844 C 75.976562 146.820312 76.027344 142.421875 76.027344 138.03125 L 76.027344 42.117188 C 76.027344 39.023438 77.867188 37.328125 80.988281 37.613281 C 81.8125 37.6875 82.660156 37.871094 83.425781 38.1875 C 84.796875 38.757812 85.488281 39.8125 85.488281 41.363281 C 85.472656 77.804688 85.472656 114.25 85.476562 150.6875 C 85.476562 157.285156 90.070312 163.132812 96.429688 164.574219 C 99.351562 165.269531 102.410156 165.179688 105.285156 164.3125 C 110.007812 162.875 112.683594 159.5 113.882812 154.863281 C 114.210938 153.605469 114.378906 152.308594 114.382812 151.011719 C 114.410156 112.546875 114.464844 74.085938 114.351562 35.625 C 114.328125 28.035156 111.230469 21.695312 104.773438 17.316406 C 101.933594 15.390625 98.71875 14.394531 95.34375 13.914062 C 90.609375 13.246094 85.898438 13.394531 81.316406 14.835938 C 73.433594 17.308594 68.832031 22.84375 66.960938 30.738281 C 66.53125 32.601562 66.316406 34.507812 66.324219 36.417969 C 66.289062 74.472656 66.265625 112.527344 66.324219 150.578125 C 66.335938 158.828125 68.507812 166.539062 73.148438 173.429688 C 77.871094 180.441406 84.574219 184.449219 92.855469 185.839844 C 99.578125 186.964844 106.261719 186.65625 112.792969 184.695312 C 123.363281 181.523438 129.699219 174.28125 132.464844 163.738281 C 133.5 159.699219 133.90625 155.523438 133.667969 151.363281 C 133.648438 150.980469 133.652344 150.597656 133.652344 150.210938 L 133.652344 36.511719 C 133.652344 33.238281 135.664062 31.496094 138.972656 31.921875 C 139.328125 31.96875 139.679688 32.023438 140.027344 32.109375 C 141.578125 32.472656 142.6875 33.347656 143.179688 34.90625 L 143.179688 152.367188 C 143.121094 152.613281 143.03125 152.855469 143.015625 153.105469 C 142.664062 158.617188 141.457031 164.039062 139.4375 169.179688 C 133.320312 184.679688 121.898438 193.113281 105.34375 194.675781 L 101.925781 195 L 98.09375 195 L 96.964844 194.835938 C 94.085938 194.46875 91.160156 194.300781 88.328125 193.691406 C 77.792969 191.40625 69.59375 185.699219 64.03125 176.410156 C 59.300781 168.550781 56.820312 159.546875 56.855469 150.378906 C 56.796875 112.511719 56.835938 74.648438 56.824219 36.777344 C 56.824219 33.976562 57.125 31.230469 57.804688 28.519531 C 59.355469 22.328125 62.222656 16.890625 67.082031 12.640625 C 72.238281 8.132812 78.394531 6.058594 85.089844 5.34375 C 86.253906 5.21875 87.421875 5.113281 88.585938 5 C 89.753906 5.007812 90.925781 5.007812 92.105469 5.007812 Z M 92.105469 5.007812 "/>
</svg>
