<?xml version="1.0" encoding="UTF-8"?>
<svg xmlns="http://www.w3.org/2000/svg" xmlns:xlink="http://www.w3.org/1999/xlink"
     viewBox="0 0 800 200" fill="currentColor" stroke-width="0px" version="1.1">
    <style>
        .o{fill: #2b579a;}
        @media (prefers-color-scheme: dark) {
            path { fill: #fff; }
        }
    </style>
    <path
            d="M 87.476562 61.140625 L 87.476562 135.476562 C 87.476562 153.507812 77.539062 162.707031 58.035156 162.707031 L 28.042969 162.707031 L 28.042969 33.910156 L 58.035156 33.910156 C 77.539062 33.910156 87.476562 43.109375 87.476562 61.140625 Z M 57.300781 43.109375 L 37.980469 43.109375 L 37.980469 153.507812 L 57.300781 153.507812 C 71.835938 153.507812 77.539062 147.4375 77.539062 132.164062 L 77.539062 64.453125 C 77.539062 49.179688 71.835938 43.109375 57.300781 43.109375 Z M 57.300781 43.109375 "/>
    <path
            d="M 252.707031 136.949219 C 252.707031 155.347656 242.773438 164.179688 223.269531 164.179688 L 222.898438 164.179688 C 203.394531 164.179688 193.460938 155.53125 193.460938 136.949219 L 193.460938 59.667969 C 193.460938 42.003906 203.394531 32.4375 222.898438 32.4375 L 223.269531 32.4375 C 242.773438 32.4375 252.707031 42.003906 252.707031 59.667969 L 252.707031 81.75 L 242.773438 81.75 L 242.773438 62.980469 C 242.773438 47.894531 237.433594 41.636719 223.082031 41.636719 C 208.730469 41.636719 203.394531 47.894531 203.394531 62.980469 L 203.394531 133.636719 C 203.394531 148.722656 208.730469 154.980469 223.082031 154.980469 C 237.433594 154.980469 242.773438 148.722656 242.773438 133.636719 L 242.773438 111.742188 L 252.707031 111.742188 Z M 252.707031 136.949219 "/>
    <path
            d="M 305.148438 96.652344 L 332.746094 162.707031 L 321.890625 162.707031 L 298.707031 105.667969 L 275.707031 162.707031 L 265.035156 162.707031 L 293.1875 95.917969 L 267.058594 33.910156 L 278.101562 33.910156 L 299.445312 87.636719 L 319.5 33.910156 L 329.988281 33.910156 Z M 305.148438 96.652344 "/>
    <path
            d="M 376.171875 162.707031 L 376.171875 33.910156 L 426.773438 33.910156 L 426.773438 43.109375 L 386.109375 43.109375 L 386.109375 92.789062 L 421.066406 92.789062 L 421.066406 101.988281 L 386.109375 101.988281 L 386.109375 153.507812 L 427.324219 153.507812 L 427.324219 162.707031 Z M 376.171875 162.707031 "/>
    <path
            d="M 506.257812 61.140625 L 506.257812 135.476562 C 506.257812 153.507812 496.324219 162.707031 476.820312 162.707031 L 446.828125 162.707031 L 446.828125 33.910156 L 476.820312 33.910156 C 496.324219 33.910156 506.257812 43.109375 506.257812 61.140625 Z M 476.082031 43.109375 L 456.761719 43.109375 L 456.761719 153.507812 L 476.082031 153.507812 C 490.621094 153.507812 496.324219 147.4375 496.324219 132.164062 L 496.324219 64.453125 C 496.324219 49.179688 490.621094 43.109375 476.082031 43.109375 Z M 476.082031 43.109375 "/>
    <path
            d="M 530.546875 162.707031 L 530.546875 33.910156 L 540.484375 33.910156 L 540.484375 162.707031 Z M 530.546875 162.707031 "/>
    <path
            d="M 615.371094 43.109375 L 591.082031 43.109375 L 591.082031 162.707031 L 581.148438 162.707031 L 581.148438 43.109375 L 556.859375 43.109375 L 556.859375 33.910156 L 615.371094 33.910156 Z M 615.371094 43.109375 "/>
    <path
            d="M 658.796875 32.4375 L 660.269531 32.4375 C 679.773438 32.4375 689.707031 41.636719 689.707031 59.667969 L 689.707031 136.949219 C 689.707031 154.980469 679.773438 164.179688 660.269531 164.179688 L 658.796875 164.179688 C 639.292969 164.179688 629.355469 154.980469 629.355469 136.949219 L 629.355469 59.667969 C 629.355469 41.453125 639.292969 32.4375 658.796875 32.4375 Z M 659.53125 154.980469 C 674.066406 154.980469 679.773438 148.90625 679.773438 133.636719 L 679.773438 62.980469 C 679.773438 47.710938 674.066406 41.636719 659.53125 41.636719 C 644.996094 41.636719 639.292969 47.710938 639.292969 62.980469 L 639.292969 133.636719 C 639.292969 148.910156 644.996094 154.980469 659.53125 154.980469 Z M 659.53125 154.980469 "/>
    <path
            d="M 766.804688 162.707031 L 745.644531 107.140625 L 723.195312 107.140625 L 723.195312 162.707031 L 713.261719 162.707031 L 713.261719 33.910156 L 743.621094 33.910156 C 763.125 33.910156 773.058594 43.109375 773.058594 61.140625 L 773.058594 79.910156 C 773.058594 93.890625 767.171875 102.539062 755.394531 105.667969 L 777.476562 162.707031 Z M 763.125 76.78125 L 763.125 64.453125 C 763.125 49.179688 757.417969 43.109375 742.882812 43.109375 L 723.195312 43.109375 L 723.195312 98.125 L 742.882812 98.125 C 757.417969 98.125 763.125 91.867188 763.125 76.78125 Z M 763.125 76.78125 "/>
    <path class="o"
          d="M 134.992188 32.441406 C 135.820312 32.523438 136.644531 32.59375 137.46875 32.683594 C 142.113281 33.191406 146.382812 34.632812 149.949219 37.765625 C 153.28125 40.695312 155.261719 44.433594 156.339844 48.6875 C 156.808594 50.558594 157.039062 52.484375 157.035156 54.414062 C 157.023438 80.800781 157.03125 107.183594 157.023438 133.570312 C 157.027344 136.777344 156.175781 139.925781 154.550781 142.691406 C 152.3125 146.554688 148.902344 148.773438 144.546875 149.535156 C 140.808594 150.183594 137.09375 150.007812 133.480469 148.785156 C 128.257812 147.015625 125.253906 143.273438 124.195312 137.9375 C 123.929688 136.597656 123.882812 135.199219 123.859375 133.820312 C 123.8125 130.773438 123.84375 127.722656 123.84375 124.675781 L 123.84375 58.171875 C 123.84375 56.027344 125.121094 54.851562 127.285156 55.050781 C 127.855469 55.101562 128.445312 55.230469 128.976562 55.449219 C 129.925781 55.84375 130.402344 56.574219 130.402344 57.648438 C 130.394531 82.917969 130.394531 108.1875 130.398438 133.457031 C 130.398438 138.027344 133.582031 142.082031 137.992188 143.082031 C 140.019531 143.566406 142.136719 143.503906 144.132812 142.902344 C 147.40625 141.902344 149.261719 139.5625 150.09375 136.351562 C 150.320312 135.476562 150.4375 134.578125 150.441406 133.675781 C 150.457031 107.007812 150.5 80.339844 150.417969 53.671875 C 150.402344 48.410156 148.253906 44.011719 143.777344 40.976562 C 141.808594 39.644531 139.578125 38.949219 137.238281 38.617188 C 133.957031 38.15625 130.691406 38.257812 127.511719 39.253906 C 122.046875 40.972656 118.855469 44.808594 117.558594 50.28125 C 117.261719 51.574219 117.113281 52.894531 117.117188 54.222656 C 117.09375 80.609375 117.078125 106.992188 117.117188 133.378906 C 117.125 139.097656 118.632812 144.445312 121.847656 149.222656 C 125.125 154.085938 129.769531 156.863281 135.515625 157.828125 C 140.175781 158.605469 144.808594 158.394531 149.335938 157.035156 C 156.667969 154.835938 161.0625 149.8125 162.976562 142.503906 C 163.695312 139.703125 163.976562 136.808594 163.8125 133.921875 C 163.796875 133.65625 163.800781 133.390625 163.800781 133.125 L 163.800781 54.285156 C 163.800781 52.015625 165.195312 50.808594 167.492188 51.105469 C 167.738281 51.136719 167.980469 51.175781 168.222656 51.234375 C 169.296875 51.484375 170.066406 52.09375 170.40625 53.175781 L 170.40625 134.621094 C 170.367188 134.789062 170.304688 134.957031 170.292969 135.132812 C 170.050781 138.953125 169.210938 142.710938 167.8125 146.277344 C 163.570312 157.023438 155.652344 162.871094 144.171875 163.953125 L 141.800781 164.179688 L 139.144531 164.179688 L 138.363281 164.066406 C 136.367188 163.8125 134.335938 163.695312 132.375 163.273438 C 125.070312 161.6875 119.382812 157.730469 115.527344 151.289062 C 112.246094 145.839844 110.527344 139.597656 110.550781 133.238281 C 110.511719 106.984375 110.539062 80.730469 110.53125 54.472656 C 110.53125 52.527344 110.738281 50.625 111.210938 48.742188 C 112.285156 44.449219 114.273438 40.683594 117.644531 37.734375 C 121.21875 34.609375 125.488281 33.171875 130.128906 32.675781 C 130.9375 32.589844 131.746094 32.515625 132.550781 32.4375 C 133.363281 32.441406 134.175781 32.441406 134.992188 32.441406 Z M 134.992188 32.441406 "/>
</svg>
