<?xml version="1.0" encoding="UTF-8"?><svg id="uuid-82046163-7f21-4786-875f-77bde1c52185" xmlns="http://www.w3.org/2000/svg" viewBox="0 0 1600 400"><defs><style>.uuid-c433e11a-e1b1-4c95-a8ff-76cd50d3b92e{fill:#2b579a;}.uuid-c433e11a-e1b1-4c95-a8ff-76cd50d3b92e,.uuid-353dbc44-221d-4106-920f-f621c158d7de{stroke-width:0px;}.uuid-353dbc44-221d-4106-920f-f621c158d7de{fill:#000;}</style></defs><path class="uuid-353dbc44-221d-4106-920f-f621c158d7de" d="M182.95996,127.28v145.43994c0,35.28027-19.43994,53.28027-57.6001,53.28027h-58.67969V74.0007h58.67969c38.16016,0,57.6001,18,57.6001,53.2793ZM123.91992,92.0007h-37.7998v215.99951h37.7998c28.43994,0,39.6001-11.87988,39.6001-41.75977v-132.47998c0-29.87988-11.16016-41.75977-39.6001-41.75977Z"/><path id="uuid-84f8a12a-c6bb-4143-af00-e3fa1879f768" class="uuid-c433e11a-e1b1-4c95-a8ff-76cd50d3b92e" d="M275.92824,71.13177c1.61551.15499,3.23103.2921,4.84653.47094,9.085.98958,17.43678,3.81523,24.41745,9.94344,6.52166,5.73476,10.39055,13.04331,12.50083,21.36527.91635,3.66487,1.37291,7.42956,1.35919,11.20723-.0179,51.62478-.00597,103.24958-.02383,154.87435.01223,6.2726-1.65726,12.43381-4.8346,17.84214-4.38155,7.55891-11.05224,11.9047-19.57093,13.38906-7.3145,1.27573-14.58728.92996-21.65142-1.46052-10.21766-3.46351-16.10146-10.78994-18.17002-21.22817-.51863-2.62296-.61401-5.3592-.65575-8.05371-.09538-5.96129-.0298-11.92855-.0298-17.88984V121.47489c0-4.19675,2.49778-6.4978,6.7303-6.11032,1.12073.10134,2.27125.35171,3.30851.78093,1.85992.769,2.79585,2.19972,2.79585,4.30405-.01788,49.437-.01788,98.87994-.01192,148.31695,0,8.94791,6.22956,16.88238,14.85555,18.83769,3.96731.94397,8.11382.82055,12.01797-.35768,6.40242-1.94934,10.03285-6.52762,11.66029-12.81678.44637-1.70699.6747-3.46365.6796-5.22805.03577-52.17919.11327-104.35838-.04173-156.53757-.0298-10.29515-4.23252-18.89729-12.99561-24.83475-3.85099-2.61104-8.21466-3.96426-12.79293-4.61404-6.42031-.90611-12.81081-.7094-19.02845,1.24591-10.69456,3.35621-16.93603,10.86744-19.47553,21.57391-.58221,2.52776-.87225,5.11402-.86439,7.70796-.04768,51.62479-.0775,103.24957,0,154.87436.01788,11.18934,2.96276,21.65142,9.25789,30.99872,6.40839,9.51422,15.49936,14.95091,26.7364,16.83468,9.12077,1.52609,18.18791,1.10879,27.04638-1.54994,14.34287-4.30405,22.93904-14.12827,26.68872-28.4294,1.40267-5.48072,1.95361-11.14466,1.63339-16.79297-.0298-.51863-.02383-1.03726-.02383-1.56186V113.86827c0-4.44116,2.73028-6.80184,7.21912-6.22359.48286.05962.95976.13711,1.43072.25037,2.10435.49479,3.60657,1.68109,4.27424,3.79734v159.3513c-.0775.33383-.19673.66169-.22056,1.00149-.47832,7.47627-2.11534,14.83281-4.8525,21.80642-8.29811,21.02547-23.79747,32.47116-46.25366,34.58743l-4.63788.44113h-5.19825l-1.53206-.22056c-3.90464-.50076-7.87486-.72726-11.71394-1.55589-14.29519-3.09988-25.41896-10.84359-32.96594-23.44577-6.41505-10.6591-9.78223-22.87415-9.73478-35.31469-.0775-51.36844-.02385-102.73691-.04173-154.11132,0-3.80331.41133-7.52911,1.32937-11.20723,2.10434-8.39946,5.99706-15.77358,12.59025-21.53815,6.9926-6.11629,15.34436-8.93001,24.42938-9.90171,1.57974-.16692,3.15948-.30999,4.73923-.46498,1.58571.01192,3.17736.01192,4.775.01192h-.00009Z"/><path class="uuid-353dbc44-221d-4106-920f-f621c158d7de" d="M506.24023,275.59982c0,36-19.43945,53.28027-57.59961,53.28027h-.7207c-38.15918,0-57.6001-16.91992-57.6001-53.28027V124.40011c0-34.55957,19.44092-53.28027,57.6001-53.28027h.7207c38.16016,0,57.59961,18.7207,57.59961,53.28027v43.2002h-19.43945v-36.71973c0-29.52051-10.44043-41.76074-38.52051-41.76074s-38.51953,12.24023-38.51953,41.76074v138.23975c0,29.51953,10.43945,41.75977,38.51953,41.75977s38.52051-12.24023,38.52051-41.75977v-42.83984h19.43945v49.31934Z"/><path class="uuid-353dbc44-221d-4106-920f-f621c158d7de" d="M608.84082,196.76047l54,129.23975h-21.24023l-45.36035-111.6001-45,111.6001h-20.87988l55.08008-130.68018-51.12012-121.31934h21.59961l41.76074,105.12012,39.24023-105.12012h20.51953l-48.59961,122.75977Z"/><path class="uuid-353dbc44-221d-4106-920f-f621c158d7de" d="M836.36035,161.12082v-32.40039c0-27.71973-10.08008-39.95996-37.08008-39.95996s-37.08008,12.24023-37.08008,39.95996v17.63965c0,18.7207,6.48047,23.76074,25.56055,33.84082l38.51953,21.23926c17.64062,9.36035,30.24023,23.3999,30.24023,42.47998v32.40039c0,36-18.36035,52.55957-56.52051,52.55957h-.71973c-38.16016,0-56.51953-16.2002-56.51953-52.55957v-41.04004h19.43945v35.2793c0,27.36035,10.08008,40.68066,37.44043,40.68066s37.43945-13.32031,37.43945-40.68066v-20.16016c0-18.71973-7.55957-25.19922-26.63965-35.99951l-37.7998-20.51953c-20.87988-11.87988-29.87988-21.60059-29.87988-41.75977v-29.16016c0-34.56055,21.59961-51.84082,56.16016-51.84082h.71973c34.55957,0,56.16016,17.28027,56.16016,51.84082v38.16016h-19.44043Z"/><path class="uuid-353dbc44-221d-4106-920f-f621c158d7de" d="M994.04102,92.0007h-47.52051v233.99951h-19.44043V92.0007h-47.51953v-18h114.48047v18Z"/><path class="uuid-353dbc44-221d-4106-920f-f621c158d7de" d="M1138.76074,275.59982c0,36-18.7207,53.28027-56.87988,53.28027h-1.44043c-38.16016,0-56.87988-16.91992-56.87988-53.28027V74.0007h19.43945v195.11963c0,29.87988,9.7207,41.75977,38.16016,41.75977s38.16016-11.87988,38.16016-41.75977V74.0007h19.44043v201.59912Z"/><path class="uuid-353dbc44-221d-4106-920f-f621c158d7de" d="M1301.84082,127.28v145.43994c0,35.28027-19.43945,53.28027-57.59961,53.28027h-58.68066V74.0007h58.68066c38.16016,0,57.59961,18,57.59961,53.2793ZM1242.80078,92.0007h-37.7998v215.99951h37.7998c28.44043,0,39.60059-11.87988,39.60059-41.75977v-132.47998c0-29.87988-11.16016-41.75977-39.60059-41.75977Z"/><path class="uuid-353dbc44-221d-4106-920f-f621c158d7de" d="M1349.36035,326.00021V74.0007h19.43945v251.99951h-19.43945Z"/><path class="uuid-353dbc44-221d-4106-920f-f621c158d7de" d="M1474.28027,71.11984h2.87988c38.16016,0,57.60059,18,57.60059,53.28027v151.19971c0,35.28027-19.44043,53.28027-57.60059,53.28027h-2.87988c-38.16016,0-57.59961-18-57.59961-53.28027V124.40011c0-35.63965,19.43945-53.28027,57.59961-53.28027ZM1475.7207,310.88009c28.43945,0,39.59961-11.87988,39.59961-41.75977v-138.23975c0-29.87988-11.16016-41.76074-39.59961-41.76074s-39.60059,11.88086-39.60059,41.76074v138.23975c0,29.87988,11.16016,41.75977,39.60059,41.75977Z"/></svg>